<?xml version="1.0" encoding="UTF-8"?>
<svg viewBox="0 0 18 18" version="1.1" xmlns="http://www.w3.org/2000/svg" xmlns:xlink="http://www.w3.org/1999/xlink">
    <g id="页面-1" stroke="none" stroke-width="1" fill="none" fill-rule="evenodd">
        <g id="更改历史" transform="translate(-741.000000, -121.000000)" fill-rule="nonzero">
            <g id="Button/Secondary-Button/Small/Icon/Normal" transform="translate(673.000000, 112.000000)">
                <g id="刷新" transform="translate(68.000000, 9.000000)">
                    <rect id="矩形" fill="#000000" opacity="0" x="0" y="0" width="18" height="18"></rect>
                    <path d="M12.3169922,14.0748047 C11.3167969,14.7867188 10.1443359,15.1382812 8.94550781,15.1294922 C8.79257812,15.1294922 8.63085937,15.1207031 8.47617187,15.103125 L8.28632812,15.0767578 C8.15976562,15.0591797 8.04375,15.0416016 7.92597656,15.0222656 L7.70976562,14.9677734 C7.59199219,14.9414062 7.47597656,14.9132812 7.35820312,14.878125 L7.19648437,14.8236328 C7.06113281,14.7779297 6.93457031,14.7339844 6.80976562,14.6794922 C6.78339844,14.6707031 6.75527344,14.653125 6.72890625,14.6425781 C6.57597656,14.5792969 6.43183594,14.5072266 6.28769531,14.4263672 C6.27890625,14.4263672 6.27890625,14.4175781 6.27011719,14.4175781 C5.79199219,14.146875 5.35078125,13.8128906 4.96230469,13.4261719 L4.94472656,13.4085937 C4.82695312,13.2820312 4.7109375,13.1554688 4.60195312,13.021875 C4.57558594,12.9955078 4.55625,12.9585937 4.52988281,12.9322266 C3.74589844,11.9320312 3.26777344,10.6699219 3.26777344,9.30058594 L4.60195312,9.30058594 C4.63710937,9.30058594 4.67402344,9.28300781 4.6828125,9.24609375 C4.70039062,9.21972656 4.70039062,9.17402344 4.6828125,9.14765625 L2.42050781,5.7375 C2.40292969,5.71113281 2.37480469,5.69179687 2.33964844,5.69179687 C2.30273437,5.69179687 2.27636719,5.709375 2.25878906,5.7375 L0.0140625,9.14414062 C-0.003515625,9.17050781 -0.003515625,9.21621094 0.0140625,9.24257812 C0.031640625,9.26894531 0.0685546875,9.29707031 0.094921875,9.29707031 L1.42910156,9.29707031 C1.42910156,10.9107422 1.92480469,12.4066406 2.77207031,13.6511719 L2.7984375,13.7056641 C2.88808594,13.8322266 2.97949219,13.9482422 3.07792969,14.0660156 L3.18691406,14.2013672 C3.32226562,14.371875 3.47519531,14.5353516 3.61933594,14.6882813 L3.66503906,14.7339844 C4.16953125,15.2472656 4.74609375,15.6796875 5.36835937,16.0224609 L5.42285156,16.0488281 C5.60390625,16.1472656 5.78320312,16.2386719 5.97304687,16.3195313 C6.01875,16.3371094 6.06269531,16.3652344 6.10839844,16.3828125 C6.27011719,16.4460938 6.43359375,16.509375 6.5953125,16.5638672 C6.67617187,16.5902344 6.74824219,16.6183594 6.82910156,16.6447266 C6.97324219,16.6904297 7.11738281,16.7255859 7.2703125,16.7625 C7.36875,16.7888672 7.46894531,16.8082031 7.56738281,16.8345703 C7.61308594,16.8433594 7.64824219,16.8521484 7.69394531,16.8609375 C7.83808594,16.8873047 7.9734375,16.8978516 8.11757812,16.9154297 C8.17207031,16.9242188 8.21601562,16.9330078 8.27050781,16.9330078 C8.52363281,16.959375 8.775,16.9787109 9.028125,16.9787109 C10.5697266,16.9787109 12.0744141,16.5005859 13.3628906,15.5900391 C13.7777344,15.3017578 13.8761719,14.7251953 13.5878906,14.3103516 C13.2908203,13.8849609 12.7230469,13.7777344 12.3169922,14.0748047 M16.5884766,9.29707031 C16.5884766,7.68339844 16.0927734,6.19628906 15.2542969,4.96230469 C15.2455078,4.94472656 15.2367187,4.91660156 15.2191406,4.89902344 C15.1101562,4.74609375 15.0029297,4.61074219 14.8851562,4.46660156 C14.8763672,4.44902344 14.8587891,4.43144531 14.85,4.41210937 C14.0835937,3.46640625 13.1185547,2.73515625 12.0199219,2.25703125 C11.9935547,2.24824219 11.9566406,2.23066406 11.9302734,2.21132812 C11.7597656,2.13925781 11.5787109,2.07597656 11.3976562,2.01269531 C11.334375,1.99511719 11.2710937,1.96699219 11.1990234,1.94941406 C11.0460937,1.90371094 10.884375,1.85976562 10.7208984,1.82285156 C10.63125,1.80527344 10.5398437,1.77714844 10.4501953,1.75957031 C10.4044922,1.75078125 10.3605469,1.74199219 10.3236328,1.73320312 C10.2058594,1.715625 10.0810547,1.70683594 9.96328125,1.6875 C9.88242187,1.67871094 9.8015625,1.66113281 9.71015625,1.65058594 C9.51152344,1.63300781 9.30410156,1.62421875 9.10546875,1.62421875 C9.06855469,1.62421875 9.03339844,1.61542969 8.99648437,1.61542969 L8.97890625,1.61542969 C7.43730469,1.61542969 5.94140625,2.08476562 4.65292969,3.00410156 C4.23808594,3.29238281 4.13964844,3.86894531 4.42792969,4.28378906 C4.71621094,4.69863281 5.28398437,4.79707031 5.69882812,4.50878906 C6.69023437,3.80566406 7.85390625,3.4453125 9.0421875,3.45410156 C9.21269531,3.45410156 9.38496094,3.46289062 9.54667969,3.48046875 C9.60117187,3.48925781 9.64511719,3.49804687 9.69960937,3.49804687 C9.83496094,3.515625 9.9703125,3.53496094 10.1056641,3.56132812 C10.1689453,3.57011719 10.2234375,3.58769531 10.2761719,3.59824219 C10.4115234,3.62460937 10.5380859,3.66152344 10.6646484,3.69667969 C10.6998047,3.70546875 10.7455078,3.72304687 10.7824219,3.74238281 C10.9265625,3.78808594 11.0707031,3.84082031 11.2148437,3.90410156 C11.2324219,3.91289062 11.2412109,3.92167969 11.2605469,3.92167969 C12.1078125,4.29082031 12.8566406,4.85859375 13.4332031,5.57050781 C13.4332031,5.57050781 13.4419922,5.57929687 13.4419922,5.58808594 C14.2628906,6.59707031 14.7498047,7.87675781 14.7498047,9.28300781 L13.415625,9.28300781 C13.3787109,9.28300781 13.3435547,9.30058594 13.3347656,9.3375 C13.3259766,9.37265625 13.3171875,9.40957031 13.3347656,9.4359375 L15.5794922,12.8496094 C15.5970703,12.8759766 15.6251953,12.8953125 15.6603516,12.8953125 C15.6972656,12.8953125 15.7236328,12.8777344 15.7412109,12.8496094 L17.9859375,9.44296875 C18.0035156,9.41660156 18.0035156,9.37089844 17.9859375,9.34453125 C17.9683594,9.31816406 17.9314453,9.29003906 17.9050781,9.29003906 L16.5884766,9.29707031 Z" id="形状" fill="#03238C"></path>
                </g>
            </g>
        </g>
    </g>
</svg>