<?xml version="1.0" encoding="UTF-8"?>
<svg viewBox="0 0 24 24" version="1.1" xmlns="http://www.w3.org/2000/svg" xmlns:xlink="http://www.w3.org/1999/xlink">
  <g id="Group-14" transform="translate(4.000000, 4.000000)">
    <path d="M9.34314575,0 C10.4040117,0 11.4214274,0.421427361 12.1715729,1.17157288 L12.1715729,1.17157288 L14.8284271,3.82842712 C15.5785726,4.57857264 16,5.59598829 16,6.65685425 L16,6.65685425 L16,15 C16,15.5522847 15.5522847,16 15,16 L15,16 L1,16 C0.44771525,16 -6.76353751e-17,15.5522847 0,15 L0,15 L0,1 C6.76353751e-17,0.44771525 0.44771525,0 1,0 L1,0 Z M12.5,9.75 L3,9.75 L3,11.25 L12.5,11.25 L12.5,9.75 Z M9,5.25 L3,5.25 L3,6.75 L9,6.75 L9,5.25 Z" id="Combined-Shape"></path>
  </g>
</svg>