<?xml version="1.0" encoding="UTF-8"?>
<svg width="24px" height="24px" viewBox="0 0 24 24" version="1.1" xmlns="http://www.w3.org/2000/svg" xmlns:xlink="http://www.w3.org/1999/xlink">
  <path d="M5.42905681,3.67880199 L13.4290568,7.47880199 C13.7777753,7.64444325 14,7.99602046 14,8.38207949 L14,20 C14,20.5522847 13.5522847,21 13,21 L5,21 C4.44771525,21 4,20.5522847 4,20 L4,4.58207949 C4,4.02979474 4.44771525,3.58207949 5,3.58207949 C5.14842468,3.58207949 5.29498814,3.61511937 5.42905681,3.67880199 Z" id="Rectangle" transform="translate(9.000000, 12.000000) scale(-1, 1) translate(-9.000000, -12.000000) "></path>
  <path d="M15,9 L19.1961161,9.83922323 C19.6635403,9.93270807 20,10.3431229 20,10.8198039 L20,20 C20,20.5522847 19.5522847,21 19,21 L16,21 C15.4477153,21 15,20.5522847 15,20 L15,9 L15,9 Z" id="Rectangle"></path>
  <rect id="矩形" fill="#FFFFFF" x="7" y="9" width="4" height="1"></rect>
  <rect id="矩形备份" fill="#FFFFFF" x="7" y="13" width="4" height="1"></rect>
  <rect id="矩形" x="12" y="20" width="5" height="1"></rect>
</svg>