<?xml version="1.0" encoding="UTF-8"?>
<svg width="24px" height="24px" viewBox="0 0 24 24" version="1.1" xmlns="http://www.w3.org/2000/svg" xmlns:xlink="http://www.w3.org/1999/xlink">
    <g id="icon/选中/画板备份-20">
        <rect id="矩形" x="7" y="3" width="10" height="3" rx="1"></rect>
        <path d="M7,7 L17,7 C17.5522847,7 18,7.44771525 18,8 L18,19 C18,20.1045695 17.1045695,21 16,21 L8,21 C6.8954305,21 6,20.1045695 6,19 L6,8 C6,7.44771525 6.44771525,7 7,7 Z" id="Rectangle" transform="translate(12.000000, 14.000000) scale(1, -1) translate(-12.000000, -14.000000) "></path>
        <rect id="矩形" fill="#FFFFFF" x="9" y="13" width="6" height="1"></rect>
        <rect id="矩形备份" fill="#FFFFFF" transform="translate(12.000000, 13.500000) rotate(-270.000000) translate(-12.000000, -13.500000) " x="9" y="13" width="6" height="1"></rect>
    </g>
</svg>