<?xml version="1.0" encoding="UTF-8"?>
<svg width="24px" height="24px" viewBox="0 0 24 24" version="1.1" xmlns="http://www.w3.org/2000/svg" xmlns:xlink="http://www.w3.org/1999/xlink">
    <g id="icon/选中/画板备份-26">
        <path d="M5,9 L19,9 L19,20 C19,20.5522847 18.5522847,21 18,21 L6,21 C5.44771525,21 5,20.5522847 5,20 L5,9 L5,9 Z" id="矩形"></path>
        <path d="M17.8333333,2.5 C18.136109,2.5 18.4240367,2.59102663 18.6653836,2.75192456 C18.9067305,2.91282249 19.1014965,3.14359172 19.2179487,3.42307692 L19.2179487,3.42307692 L21.4985029,8.89640695 C21.5275943,9.90387397 21.1308038,10.8189437 20.4748737,11.4748737 C19.8414983,12.1082492 18.9664983,12.5 18,12.5 C17.0335017,12.5 16.1585017,12.1082492 15.5251263,11.4748737 C15.3241425,11.2738899 15.1474886,11.0485762 14.9999534,10.8038706 C14.8524435,11.0486628 14.6758189,11.2739286 14.4748737,11.4748737 C13.8414983,12.1082492 12.9664983,12.5 12,12.5 C11.0335017,12.5 10.1585017,12.1082492 9.52512627,11.4748737 C9.32414245,11.2738899 9.14748857,11.0485762 8.9999534,10.8038706 C8.85244348,11.0486628 8.67581889,11.2739286 8.47487373,11.4748737 C7.84149831,12.1082492 6.96649831,12.5 6,12.5 C5.03350169,12.5 4.15850169,12.1082492 3.52512627,11.4748737 C2.86919618,10.8189437 2.47240571,9.90387397 2.50149711,8.89640695 L2.50149711,8.89640695 L4.78205128,3.42307692 C4.89850345,3.14359172 5.09326948,2.91282249 5.33461637,2.75192456 C5.57596327,2.59102663 5.86389103,2.5 6.16666667,2.5 L6.16666667,2.5 Z" id="形状结合" stroke="#FFFFFF"></path>
    </g>
</svg>