<?xml version="1.0" encoding="UTF-8"?>
<svg width="24px" height="24px" viewBox="0 0 24 24" version="1.1" xmlns="http://www.w3.org/2000/svg" xmlns:xlink="http://www.w3.org/1999/xlink">
    <title>icon/选中/画板备份 21</title>
    <g id="icon/选中/画板备份-21" stroke="none" stroke-width="1" fill="none" fill-rule="evenodd">
        <path d="M19,4 C19.5128358,4 19.9355072,4.38604019 19.9932723,4.88337887 L20,5 L20,19 C20,19.5128358 19.6139598,19.9355072 19.1166211,19.9932723 L19,20 L5,20 C4.48716416,20 4.06449284,19.6139598 4.00672773,19.1166211 L4,19 L4,14.941 L9.42857143,14.9415731 C9.47295145,14.9415731 9.5110293,14.968556 9.52729447,15.0070112 L9.53571429,15.048716 L9.53571429,15.6333081 C9.53571429,16.4715974 10.1775283,17.1599831 10.9965744,17.233883 L11.1428571,17.2404509 L12.8571429,17.2404509 C13.6954322,17.2404509 14.3838179,16.5986369 14.4577178,15.7795908 L14.4642857,15.6333081 L14.4642857,15.048716 C14.4642857,15.004336 14.4912686,14.9662581 14.5297237,14.949993 L14.5714286,14.9415731 L20,14.9415731 L20,13.4415731 L14.5714286,13.4415731 C13.7331392,13.4415731 13.0447536,14.0833872 12.9708536,14.9024332 L12.9642857,15.048716 L12.9642857,15.6333081 C12.9642857,15.6776881 12.9373029,15.7157659 12.8988477,15.7320311 L12.8571429,15.7404509 L11.1428571,15.7404509 C11.0984771,15.7404509 11.0603993,15.7134681 11.0441341,15.6750129 L11.0357143,15.6333081 L11.0357143,15.048716 C11.0357143,14.2104267 10.3939003,13.522041 9.57485419,13.448141 L9.42857143,13.4415731 L4,13.441 L4,5 C4,4.48716416 4.38604019,4.06449284 4.88337887,4.00672773 L5,4 L19,4 Z M11.3290408,7.46308958 L9.17837141,9.10461159 C8.95886259,9.2721541 8.91673558,9.58592119 9.08427809,9.80543 C9.17900408,9.92953696 9.3262649,10.0022723 9.48239149,10.002067 L10.9357659,10.0001557 L10.9357659,11.4964507 C10.9357659,11.7725931 11.1596235,11.9964507 11.4357659,11.9964507 L12.4414164,11.9964507 C12.7175588,11.9964507 12.9414164,11.7725931 12.9414164,11.4964507 L12.9414164,10.0001557 L14.3891342,10.0020633 C14.6652763,10.0024271 14.8894287,9.77886463 14.8897925,9.50272249 C14.8899982,9.34659546 14.8172628,9.19933409 14.6931555,9.10460782 L12.542491,7.46308958 C12.1842243,7.18963855 11.6873076,7.18963855 11.3290408,7.46308958 Z" id="Combined-Shape" fill="#2C6BBA"></path>
    </g>
</svg>